<?xml version="1.0" encoding="UTF-8"?>
<svg width="1024" height="1024" viewBox="0 0 1024 1024" xmlns="http://www.w3.org/2000/svg">
  <defs>
    <linearGradient id="iconGradient" x1="0%" y1="0%" x2="100%" y2="100%">
      <stop offset="0%" style="stop-color:#00CFFF;stop-opacity:1" />
      <stop offset="100%" style="stop-color:#0099CC;stop-opacity:1" />
    </linearGradient>
    <filter id="shadow" x="-50%" y="-50%" width="200%" height="200%">
      <feDropShadow dx="0" dy="8" stdDeviation="16" flood-opacity="0.2"/>
    </filter>
  </defs>
  
  <!-- Background Circle -->
  <circle cx="512" cy="512" r="480" fill="url(#iconGradient)" filter="url(#shadow)"/>
  
  <!-- Icon Symbol - Modern 'F' with video play element -->
  <g transform="translate(512, 512)">
    <!-- Main F Letter -->
    <path d="M-120,-180 L-120,180 L-80,180 L-80,20 L40,20 L40,60 L-80,60 L-80,100 L20,100 L20,140 L-80,140 L-80,180 L-120,180 Z" 
          fill="white" opacity="0.95"/>
    
    <!-- Play Button Accent -->
    <circle cx="80" cy="-80" r="50" fill="white" opacity="0.9"/>
    <path d="M65,-95 L65,-65 L95,-80 Z" fill="#00CFFF"/>
    
    <!-- Modern Accent Lines -->
    <rect x="60" y="60" width="80" height="8" rx="4" fill="white" opacity="0.7"/>
    <rect x="60" y="80" width="60" height="8" rx="4" fill="white" opacity="0.7"/>
    <rect x="60" y="100" width="40" height="8" rx="4" fill="white" opacity="0.7"/>
  </g>
</svg>