<?xml version="1.0" encoding="UTF-8"?>
<svg width="1284" height="2778" viewBox="0 0 1284 2778" xmlns="http://www.w3.org/2000/svg">
  <defs>
    <linearGradient id="splashGradient" x1="0%" y1="0%" x2="0%" y2="100%">
      <stop offset="0%" style="stop-color:#FFFFFF;stop-opacity:1" />
      <stop offset="100%" style="stop-color:#F8F9FA;stop-opacity:1" />
    </linearGradient>
    <filter id="glow" x="-50%" y="-50%" width="200%" height="200%">
      <feGaussianBlur stdDeviation="3" result="coloredBlur"/>
      <feMerge> 
        <feMergeNode in="coloredBlur"/>
        <feMergeNode in="SourceGraphic"/>
      </feMerge>
    </filter>
  </defs>
  
  <!-- Background -->
  <rect width="1284" height="2778" fill="url(#splashGradient)"/>
  
  <!-- Center Content -->
  <g transform="translate(642, 1389)">
    <!-- Logo Background Circle -->
    <circle cx="0" cy="0" r="180" fill="#00CFFF" opacity="0.1"/>
    <circle cx="0" cy="0" r="120" fill="#00CFFF" filter="url(#glow)"/>
    
    <!-- Logo Icon -->
    <g transform="scale(0.8)">
      <path d="M-60,-90 L-60,90 L-40,90 L-40,10 L20,10 L20,30 L-40,30 L-40,50 L10,50 L10,70 L-40,70 L-40,90 L-60,90 Z" 
            fill="white"/>
      
      <!-- Play accent -->
      <circle cx="40" cy="-40" r="25" fill="white" opacity="0.9"/>
      <path d="M32.5,-47.5 L32.5,-32.5 L47.5,-40 Z" fill="#00CFFF"/>
    </g>
    
    <!-- App Name -->
    <text x="0" y="200" font-family="SF Pro Display, -apple-system, BlinkMacSystemFont, Helvetica, Arial, sans-serif" 
          font-size="48" font-weight="600" text-anchor="middle" fill="#1A1A1A">Feeb</text>
    
    <!-- Tagline -->
    <text x="0" y="240" font-family="SF Pro Display, -apple-system, BlinkMacSystemFont, Helvetica, Arial, sans-serif" 
          font-size="18" font-weight="400" text-anchor="middle" fill="#1A1A1A" opacity="0.7">
          React. Record. Share.
    </text>
  </g>
  
  <!-- Loading Indicator -->
  <g transform="translate(642, 2200)">
    <circle cx="0" cy="0" r="3" fill="#00CFFF" opacity="0.8">
      <animate attributeName="opacity" values="0.8;0.2;0.8" dur="1.5s" repeatCount="indefinite"/>
    </circle>
    <circle cx="20" cy="0" r="3" fill="#00CFFF" opacity="0.6">
      <animate attributeName="opacity" values="0.6;0.2;0.6" dur="1.5s" begin="0.2s" repeatCount="indefinite"/>
    </circle>
    <circle cx="40" cy="0" r="3" fill="#00CFFF" opacity="0.4">
      <animate attributeName="opacity" values="0.4;0.2;0.4" dur="1.5s" begin="0.4s" repeatCount="indefinite"/>
    </circle>
  </g>
</svg>